<svg width="502" height="167" viewBox="0 0 502 167" fill="none" xmlns="http://www.w3.org/2000/svg">
<path d="M82.6463 73.9999L20.0364 147.045H0.00120544L62.6111 73.9999L0.00120544 0.955078H20.0364L82.6463 73.9999Z" fill="white"/>
<path d="M92.4149 73.9999L155.025 147.045H175.06L112.45 73.9999L175.06 0.955078H155.025L92.4149 73.9999Z" fill="white"/>
<path d="M9.2941 64.7047C14.4271 64.7047 18.5882 68.8658 18.5882 73.9988C18.5882 79.1318 14.4271 83.2929 9.2941 83.2929C4.16111 83.2929 0 79.1318 0 73.9988C0 68.8658 4.16111 64.7047 9.2941 64.7047Z" fill="white"/>
<path d="M161.215 64.7047C166.348 64.7047 170.509 68.8658 170.509 73.9988C170.509 79.1318 166.348 83.2929 161.215 83.2929C156.082 83.2929 151.921 79.1318 151.921 73.9988C151.921 68.8658 156.082 64.7047 161.215 64.7047Z" fill="white"/>
<path d="M226.525 5.75667V69.9996H215.276V5.75667H226.525Z" fill="white"/>
<path d="M252.015 5.75667V39.504L278.028 5.75667H291.299L270.031 33.1764L291.562 69.9996H278.555L262.649 42.6678L252.015 56.2898V69.9996H240.766V5.75667H252.015Z" fill="white"/>
<path d="M311.233 5.75667V39.504L337.247 5.75667H350.517L329.249 33.1764L350.781 69.9996H337.774L321.867 42.6678L311.233 56.2898V69.9996H299.984V5.75667H311.233Z" fill="white"/>
<path d="M370.452 5.75667V69.9996H359.202V5.75667H370.452Z" fill="white"/>
<path d="M226.525 80.7567V134.629H253.417V145H215.276V80.7567H226.525Z" fill="white"/>
<path d="M279.547 146.142C266.628 146.142 257.576 136.739 257.576 123.292C257.576 109.67 266.452 100.267 279.195 100.267C292.202 100.267 300.463 108.967 300.463 122.501V125.753L267.771 125.841C268.561 133.487 272.604 137.354 279.723 137.354C285.611 137.354 289.478 135.069 290.708 130.938H300.639C298.793 140.43 290.884 146.142 279.547 146.142ZM279.283 109.055C272.956 109.055 269.089 112.483 268.034 118.986H289.829C289.829 113.01 285.699 109.055 279.283 109.055Z" fill="white"/>
<path d="M321.534 146.142C312.306 146.142 306.682 140.781 306.682 132.608C306.682 124.611 312.482 119.601 322.764 118.81L335.771 117.844V116.877C335.771 110.989 332.256 108.616 326.807 108.616C320.479 108.616 316.964 111.252 316.964 115.822H307.824C307.824 106.419 315.558 100.267 327.334 100.267C339.023 100.267 346.229 106.594 346.229 118.635V145H336.826L336.035 138.584C334.189 143.066 328.301 146.142 321.534 146.142ZM325.049 138.057C331.641 138.057 335.859 134.102 335.859 127.423V125.138L326.807 125.841C320.128 126.456 317.579 128.653 317.579 132.169C317.579 136.123 320.216 138.057 325.049 138.057Z" fill="white"/>
<path d="M354.302 122.326C354.302 109.67 362.563 100.179 374.954 100.179C381.458 100.179 386.555 102.903 389.103 107.561L389.719 101.585H399.65V142.803C399.65 157.303 390.949 166.355 376.888 166.355C364.408 166.355 355.883 159.237 354.565 147.636H365.287C365.99 153.261 370.296 156.6 376.888 156.6C384.27 156.6 389.016 151.942 389.016 144.736V137.529C386.291 141.572 380.93 144.121 374.691 144.121C362.387 144.121 354.302 134.893 354.302 122.326ZM365.111 122.062C365.111 129.356 369.769 134.805 376.8 134.805C384.182 134.805 388.752 129.62 388.752 122.062C388.752 114.68 384.27 109.582 376.8 109.582C369.681 109.582 365.111 114.943 365.111 122.062Z" fill="white"/>
<path d="M440.187 101.585H450.908V145H440.977L440.187 139.199C437.55 143.33 431.925 146.142 426.125 146.142C416.106 146.142 410.218 139.375 410.218 128.741V101.585H420.94V124.962C420.94 133.223 424.192 136.563 430.168 136.563C436.935 136.563 440.187 132.608 440.187 124.347V101.585Z" fill="white"/>
<path d="M480.546 146.142C467.628 146.142 458.576 136.739 458.576 123.292C458.576 109.67 467.452 100.267 480.195 100.267C493.202 100.267 501.463 108.967 501.463 122.501V125.753L468.77 125.841C469.561 133.487 473.604 137.354 480.722 137.354C486.61 137.354 490.477 135.069 491.708 130.938H501.638C499.793 140.43 491.883 146.142 480.546 146.142ZM480.283 109.055C473.955 109.055 470.088 112.483 469.034 118.986H490.829C490.829 113.01 486.698 109.055 480.283 109.055Z" fill="white"/>
</svg>
